<svg width="56" height="56" viewBox="0 0 56 56" fill="none" xmlns="http://www.w3.org/2000/svg">
<path d="M51.3337 28C51.3337 15.1133 40.8869 4.66666 28.0003 4.66666C15.1137 4.66666 4.66699 15.1133 4.66699 28C4.66699 40.8865 15.1137 51.3333 28.0003 51.3333C40.8869 51.3333 51.3337 40.8865 51.3337 28Z" stroke="#9D6E2F" stroke-width="2"/>
<path d="M24.6846 20.6642L24.2149 19.6072C23.9077 18.9161 23.7541 18.5706 23.5244 18.3061C23.2366 17.9747 22.8614 17.7309 22.4416 17.6024C22.1067 17.4999 21.7285 17.4999 20.9722 17.4999C19.8659 17.4999 19.3127 17.4999 18.8483 17.7126C18.3013 17.9631 17.8073 18.5071 17.6105 19.0756C17.4434 19.5583 17.4913 20.0543 17.587 21.0463C18.6059 31.6051 24.3948 37.394 34.9536 38.413C35.9456 38.5086 36.4417 38.5565 36.9242 38.3894C37.4929 38.1926 38.0368 37.6986 38.2874 37.1516C38.5 36.6872 38.5 36.134 38.5 35.0277C38.5 34.2714 38.4999 33.8933 38.3975 33.5584C38.2691 33.1386 38.0252 32.7634 37.6938 32.4755C37.4294 32.2459 37.0839 32.0922 36.3927 31.785L35.3357 31.3153C34.5873 30.9827 34.213 30.8163 33.8328 30.7802C33.4688 30.7455 33.1019 30.7966 32.7612 30.9293C32.4053 31.0679 32.0907 31.33 31.4614 31.8544C30.8352 32.3763 30.522 32.6373 30.1394 32.777C29.8001 32.9011 29.3516 32.9469 28.9944 32.8943C28.5913 32.8349 28.2827 32.6699 27.6655 32.3401C25.7451 31.3138 24.6861 30.2548 23.6598 28.3345C23.33 27.7172 23.1651 27.4086 23.1057 27.0055C23.053 26.6483 23.0989 26.1998 23.2228 25.8606C23.3626 25.4779 23.6236 25.1648 24.1456 24.5384C24.6699 23.9092 24.9321 23.5946 25.0707 23.2387C25.2033 22.898 25.2544 22.5311 25.2198 22.1672C25.1836 21.7869 25.0173 21.4127 24.6846 20.6642Z" stroke="#9D6E2F" stroke-width="2" stroke-linecap="round"/>
</svg>
