<svg width="56" height="56" viewBox="0 0 56 56" fill="none" xmlns="http://www.w3.org/2000/svg">
<path d="M51.3337 28C51.3337 15.1133 40.8869 4.66666 28.0003 4.66666C15.1137 4.66666 4.66699 15.1133 4.66699 28C4.66699 40.8865 15.1137 51.3333 28.0003 51.3333C40.8869 51.3333 51.3337 40.8865 51.3337 28Z" stroke="#9D6E2F" stroke-width="2"/>
<path d="M16.333 21L24.3982 25.5698C27.3715 27.2545 28.6278 27.2545 31.6012 25.5698L39.6663 21" stroke="#9D6E2F" stroke-width="2" stroke-linejoin="round"/>
<path d="M16.3514 29.7215C16.4277 33.2981 16.4658 35.0862 17.7855 36.411C19.1051 37.7356 20.9417 37.7817 24.615 37.874C26.8789 37.9309 29.1205 37.9309 31.3844 37.874C35.0577 37.7817 36.8942 37.7356 38.214 36.411C39.5336 35.0862 39.5717 33.2981 39.6479 29.7215C39.6725 28.5716 39.6725 27.4285 39.6479 26.2785C39.5717 22.702 39.5336 20.9138 38.214 19.5891C36.8942 18.2644 35.0577 18.2183 31.3844 18.126C29.1205 18.0691 26.8789 18.0691 24.615 18.126C20.9417 18.2183 19.1051 18.2644 17.7854 19.5891C16.4658 20.9138 16.4277 22.702 16.3514 26.2785C16.3269 27.4285 16.3269 28.5716 16.3514 29.7215Z" stroke="#9D6E2F" stroke-width="2" stroke-linejoin="round"/>
</svg>
