<svg width="56" height="56" viewBox="0 0 56 56" fill="none" xmlns="http://www.w3.org/2000/svg">
<path d="M28.0003 51.3334C40.8869 51.3334 51.3337 40.8866 51.3337 28C51.3337 15.1134 40.8869 4.66669 28.0003 4.66669C15.1137 4.66669 4.66699 15.1134 4.66699 28C4.66699 31.2175 5.31816 34.2828 6.49591 37.0713C7.14681 38.6123 7.47227 39.383 7.51256 39.9654C7.55286 40.5478 7.38145 41.1883 7.03864 42.4695L4.66699 51.3334L13.5308 48.9618C14.812 48.619 15.4527 48.4475 16.035 48.4879C16.6174 48.528 17.388 48.8535 18.9291 49.5045C21.7177 50.6821 24.7829 51.3334 28.0003 51.3334Z" stroke="#9D6E2F" stroke-width="2" stroke-linejoin="round"/>
<path d="M20.0387 28.8803L22.0709 26.3564C22.9274 25.2926 23.9861 24.3023 24.0692 22.8859C24.0899 22.5282 23.8384 20.922 23.3349 17.7097C23.137 16.4472 21.9583 16.3333 20.9374 16.3333C19.607 16.3333 18.9418 16.3333 18.2812 16.635C17.4463 17.0164 16.5892 18.0887 16.4011 18.9871C16.2523 19.6979 16.3629 20.1877 16.5841 21.1673C17.5235 25.3278 19.7276 29.4368 23.1451 32.8545C26.5628 36.2721 30.6718 38.4762 34.8324 39.4156C35.8119 39.6368 36.3017 39.7474 37.0126 39.5985C37.911 39.4104 38.9831 38.5534 39.3646 37.7183C39.6663 37.0577 39.6663 36.3927 39.6663 35.0623C39.6663 34.0412 39.5525 32.8626 38.2899 32.6648C35.0776 32.1612 33.4716 31.9097 33.1136 31.9305C31.6973 32.0135 30.707 33.0722 29.6433 33.9287L27.1193 35.9608" stroke="#9D6E2F" stroke-width="2"/>
</svg>
