<svg width="56" height="56" viewBox="0 0 56 56" fill="none" xmlns="http://www.w3.org/2000/svg">
<path d="M32.667 51.3334V18.6667C32.667 12.067 32.667 8.76719 30.6167 6.71694C28.5664 4.66669 25.2666 4.66669 18.667 4.66669C12.0673 4.66669 8.7675 4.66669 6.71725 6.71694C4.66699 8.76719 4.66699 12.067 4.66699 18.6667V37.3334C4.66699 43.933 4.66699 47.2328 6.71725 49.2831C8.7675 51.3334 12.0673 51.3334 18.667 51.3334H32.667Z" stroke="#9D6E2F" stroke-width="2" stroke-linecap="round"/>
<path d="M15.1663 25.6666H12.833M24.4997 25.6666H22.1663M15.1663 16.3333H12.833M15.1663 35H12.833M24.4997 16.3333H22.1663M24.4997 35H22.1663" stroke="#9D6E2F" stroke-width="2" stroke-linecap="round"/>
<path d="M43.1663 35H40.833M43.1663 25.6667H40.833" stroke="#9D6E2F" stroke-width="2" stroke-linecap="round"/>
<path d="M42.0003 18.6667H32.667V51.3334H42.0003C46.4001 51.3334 48.5999 51.3334 49.9668 49.9665C51.3337 48.5996 51.3337 46.3998 51.3337 42V28C51.3337 23.6003 51.3337 21.4003 49.9668 20.0335C48.5999 18.6667 46.4001 18.6667 42.0003 18.6667Z" stroke="#9D6E2F" stroke-width="2" stroke-linecap="round"/>
</svg>
