<svg width="56" height="56" viewBox="0 0 56 56" fill="none" xmlns="http://www.w3.org/2000/svg">
<path d="M37.3334 4.66666V14M18.6667 4.66666V14" stroke="#9D6E2F" stroke-width="2.5" stroke-linecap="round" stroke-linejoin="round"/>
<path d="M30.3333 9.33334H25.6667C16.8671 9.33334 12.4673 9.33334 9.73366 12.067C7 14.8007 7 19.2004 7 28V32.6667C7 41.4661 7 45.8661 9.73366 48.5996C12.4673 51.3333 16.8671 51.3333 25.6667 51.3333H30.3333C39.1328 51.3333 43.5328 51.3333 46.2663 48.5996C49 45.8661 49 41.4661 49 32.6667V28C49 19.2004 49 14.8007 46.2663 12.067C43.5328 9.33334 39.1328 9.33334 30.3333 9.33334Z" stroke="#9D6E2F" stroke-width="2.5" stroke-linecap="round" stroke-linejoin="round"/>
<path d="M7 23.3333H49" stroke="#9D6E2F" stroke-width="2.5" stroke-linecap="round" stroke-linejoin="round"/>
<path d="M28.2936 32.6667H28.0019M28.2936 42H28.0019M17.7917 32.6667H17.5M17.7917 42H17.5M38.7917 32.6667H38.5M28.5852 32.6667C28.5852 32.9889 28.3241 33.25 28.0019 33.25C27.6799 33.25 27.4186 32.9889 27.4186 32.6667C27.4186 32.3444 27.6799 32.0833 28.0019 32.0833C28.3241 32.0833 28.5852 32.3444 28.5852 32.6667ZM28.5852 42C28.5852 42.3222 28.3241 42.5833 28.0019 42.5833C27.6799 42.5833 27.4186 42.3222 27.4186 42C27.4186 41.6778 27.6799 41.4167 28.0019 41.4167C28.3241 41.4167 28.5852 41.6778 28.5852 42ZM18.0834 32.6667C18.0834 32.9889 17.8222 33.25 17.5 33.25C17.1779 33.25 16.9167 32.9889 16.9167 32.6667C16.9167 32.3444 17.1779 32.0833 17.5 32.0833C17.8222 32.0833 18.0834 32.3444 18.0834 32.6667ZM18.0834 42C18.0834 42.3222 17.8222 42.5833 17.5 42.5833C17.1779 42.5833 16.9167 42.3222 16.9167 42C16.9167 41.6778 17.1779 41.4167 17.5 41.4167C17.8222 41.4167 18.0834 41.6778 18.0834 42ZM39.0834 32.6667C39.0834 32.9889 38.8223 33.25 38.5 33.25C38.1778 33.25 37.9167 32.9889 37.9167 32.6667C37.9167 32.3444 38.1778 32.0833 38.5 32.0833C38.8223 32.0833 39.0834 32.3444 39.0834 32.6667Z" stroke="#9D6E2F" stroke-width="2.5" stroke-linecap="round" stroke-linejoin="round"/>
</svg>
