<svg width="56" height="56" viewBox="0 0 56 56" fill="none" xmlns="http://www.w3.org/2000/svg">
<path d="M28 51.3333C40.8866 51.3333 51.3333 40.8866 51.3333 28C51.3333 15.1133 40.8866 4.66666 28 4.66666C15.1133 4.66666 4.66663 15.1133 4.66663 28C4.66663 40.8866 15.1133 51.3333 28 51.3333Z" stroke="#9D6E2F" stroke-width="2.5" stroke-linecap="round" stroke-linejoin="round"/>
<path d="M16.3334 21C16.8222 22.3594 18.1411 23.3333 19.6916 23.3333C21.2419 23.3333 22.5609 22.3594 23.0497 21M32.9504 21C33.4393 22.3594 34.7581 23.3333 36.3086 23.3333C37.8588 23.3333 39.1779 22.3594 39.6667 21" stroke="#9D6E2F" stroke-width="2.5" stroke-linecap="round" stroke-linejoin="round"/>
<path d="M18.6666 35C20.7949 37.8336 24.1833 39.6667 28 39.6667C31.8166 39.6667 35.2051 37.8336 37.3333 35" stroke="#9D6E2F" stroke-width="2.5" stroke-linecap="round" stroke-linejoin="round"/>
</svg>
