<svg width="80" height="80" viewBox="0 0 80 80" fill="none" xmlns="http://www.w3.org/2000/svg">
<path d="M33.333 40C33.333 40 34.9997 40 36.6663 43.3333C36.6663 43.3333 41.9603 35 46.6663 33.3333" stroke="#9D6E2F" stroke-width="3" stroke-linecap="round" stroke-linejoin="round"/>
<path d="M56.6663 38.3334C56.6663 47.538 49.2043 55 39.9997 55C30.7949 55 23.333 47.538 23.333 38.3334C23.333 29.1286 30.7949 21.6667 39.9997 21.6667C49.2043 21.6667 56.6663 29.1286 56.6663 38.3334Z" stroke="#9D6E2F" stroke-width="3" stroke-linecap="round"/>
<path d="M70 37.2777V27.601C70 22.1343 70 19.4009 68.653 17.6176C67.306 15.8343 64.2603 14.9685 58.169 13.237C54.0073 12.054 50.3387 10.6288 47.4077 9.32762C43.4113 7.55366 41.4133 6.66666 40 6.66666C38.5867 6.66666 36.5887 7.55366 32.5924 9.32762C29.6613 10.6288 25.9928 12.054 21.8311 13.237C15.7398 14.9685 12.6941 15.8343 11.347 17.6176C10 19.4009 10 22.1343 10 27.601V37.2777C10 56.0283 26.8759 67.2783 35.3133 71.7313C37.337 72.7993 38.3487 73.3333 40 73.3333C41.6513 73.3333 42.663 72.7993 44.6867 71.7313C53.124 67.2783 70 56.0283 70 37.2777Z" stroke="#9D6E2F" stroke-width="3" stroke-linecap="round"/>
</svg>
