<svg width="80" height="80" viewBox="0 0 80 80" fill="none" xmlns="http://www.w3.org/2000/svg">
<path d="M19.2744 13.9397C21.4339 12.2773 22.5137 11.4461 23.7599 10.9108C24.325 10.668 24.9126 10.4719 25.5156 10.3247C26.8457 10 28.256 10 31.0766 10H48.924C51.7447 10 53.155 10 54.485 10.3247C55.088 10.4719 55.6757 10.668 56.2407 10.9108C57.487 11.4461 58.5667 12.2773 60.7263 13.9397C67.8817 19.4483 71.4597 22.2026 72.686 25.7693C73.2317 27.3558 73.4353 29.0243 73.2863 30.682C72.951 34.409 70.1267 37.82 64.478 44.6417L51.1663 60.7177C46.0423 66.906 43.4803 70 40.0003 70C36.5203 70 33.9583 66.906 28.8343 60.7177L15.5227 44.6417C9.87393 37.82 7.04953 34.409 6.71433 30.682C6.56523 29.0243 6.76913 27.3558 7.31467 25.7693C8.54113 22.2026 12.1189 19.4483 19.2744 13.9397Z" stroke="#9D6E2F" stroke-width="3"/>
<path d="M7.14258 28.5714L72.8569 28.5714" stroke="#9D6E2F" stroke-width="3" stroke-linejoin="round"/>
<path d="M50 27.1429L57.1429 12.8572" stroke="#9D6E2F" stroke-width="3" stroke-linejoin="round"/>
<path d="M50 27.1429L40 10" stroke="#9D6E2F" stroke-width="3" stroke-linejoin="round"/>
<path d="M38.5713 10L25.7141 28.5714" stroke="#9D6E2F" stroke-width="3" stroke-linejoin="round"/>
<path d="M27.1426 28.5714L19.9997 12.8571" stroke="#9D6E2F" stroke-width="3" stroke-linejoin="round"/>
<path d="M38.5713 70L25.7141 27.1429" stroke="#9D6E2F" stroke-width="3" stroke-linejoin="round"/>
<path d="M41.4287 70L50.0001 28.5714" stroke="#9D6E2F" stroke-width="3" stroke-linejoin="round"/>
</svg>
