<svg width="80" height="80" viewBox="0 0 80 80" fill="none" xmlns="http://www.w3.org/2000/svg">
<path d="M53.3337 36.6666C53.3337 29.3028 47.364 23.3333 40.0003 23.3333C32.6365 23.3333 26.667 29.3028 26.667 36.6666C26.667 44.0303 32.6365 50 40.0003 50C47.364 50 53.3337 44.0303 53.3337 36.6666Z" stroke="#9D6E2F" stroke-width="3" stroke-linecap="round" stroke-linejoin="round"/>
<path d="M16.9005 50C14.6316 46.0777 13.333 41.5237 13.333 36.6667C13.333 21.9391 25.2721 10 39.9997 10C54.7273 10 66.6663 21.9391 66.6663 36.6667C66.6663 41.5237 65.3677 46.0777 63.0987 50" stroke="#9D6E2F" stroke-width="3" stroke-linecap="round" stroke-linejoin="round"/>
<path d="M60 70C60 58.9543 51.0457 50 40 50C28.9543 50 20 58.9543 20 70" stroke="#9D6E2F" stroke-width="3" stroke-linecap="round" stroke-linejoin="round"/>
</svg>
