<svg width="56" height="56" viewBox="0 0 56 56" fill="none" xmlns="http://www.w3.org/2000/svg">
<path d="M43.6539 8.15578C39.2385 5.9589 33.8354 4.66666 28 4.66666C22.1646 4.66666 16.7615 5.9589 12.346 8.15578C10.1808 9.23313 9.09811 9.7718 8.04907 11.4655C7 13.1592 7 14.7991 7 18.079V26.2199C7 39.4812 17.5988 46.8543 23.737 50.0122C25.449 50.893 26.3048 51.3333 28 51.3333C29.6952 51.3333 30.551 50.893 32.2628 50.0122C38.4011 46.8543 49 39.4812 49 26.2199V18.079C49 14.7991 49 13.1592 47.9509 11.4655C46.9019 9.77178 45.8192 9.23313 43.6539 8.15578Z" stroke="#9D6E2F" stroke-width="2.5" stroke-linecap="round" stroke-linejoin="round"/>
<path d="M21 26.8333C21 26.8333 24.2851 27.4211 25.6667 31.5C25.6667 31.5 29.1667 24.5 35 22.1667" stroke="#9D6E2F" stroke-width="2.5" stroke-linecap="round" stroke-linejoin="round"/>
</svg>
