<svg width="56" height="56" viewBox="0 0 56 56" fill="none" xmlns="http://www.w3.org/2000/svg">
<path d="M37.3334 25.6667C37.3334 20.512 33.1546 16.3333 28.0001 16.3333C22.8454 16.3333 18.6667 20.512 18.6667 25.6667C18.6667 30.8212 22.8454 35 28.0001 35C33.1546 35 37.3334 30.8212 37.3334 25.6667Z" stroke="#9D6E2F" stroke-width="2.5" stroke-linecap="round" stroke-linejoin="round"/>
<path d="M11.8305 35C10.2423 32.2544 9.33325 29.0666 9.33325 25.6667C9.33325 15.3573 17.6906 7 27.9999 7C38.3093 7 46.6666 15.3573 46.6666 25.6667C46.6666 29.0666 45.7575 32.2544 44.1692 35" stroke="#9D6E2F" stroke-width="2.5" stroke-linecap="round" stroke-linejoin="round"/>
<path d="M42 49C42 41.268 35.732 35 28 35C20.268 35 14 41.268 14 49" stroke="#9D6E2F" stroke-width="2.5" stroke-linecap="round" stroke-linejoin="round"/>
</svg>
