<svg width="80" height="80" viewBox="0 0 80 80" fill="none" xmlns="http://www.w3.org/2000/svg">
<path d="M53.3332 6.66666V20M26.6665 6.66666V20" stroke="#9D6E2F" stroke-width="3" stroke-linecap="round" stroke-linejoin="round"/>
<path d="M43.3333 13.3333H36.6667C24.0959 13.3333 17.8105 13.3333 13.9052 17.2386C10 21.1438 10 27.4292 10 40V46.6667C10 59.2373 10 65.523 13.9052 69.428C17.8105 73.3333 24.0959 73.3333 36.6667 73.3333H43.3333C55.904 73.3333 62.1897 73.3333 66.0947 69.428C70 65.523 70 59.2373 70 46.6667V40C70 27.4292 70 21.1438 66.0947 17.2386C62.1897 13.3333 55.904 13.3333 43.3333 13.3333Z" stroke="#9D6E2F" stroke-width="3" stroke-linecap="round" stroke-linejoin="round"/>
<path d="M10 33.3333H70" stroke="#9D6E2F" stroke-width="3" stroke-linecap="round" stroke-linejoin="round"/>
<path d="M36.6665 46.6667H53.3332M26.6665 46.6667H26.6964M43.3332 60H26.6665M53.3332 60H53.3032" stroke="#9D6E2F" stroke-width="3" stroke-linecap="round" stroke-linejoin="round"/>
</svg>
