<svg width="80" height="80" viewBox="0 0 80 80" fill="none" xmlns="http://www.w3.org/2000/svg">
<path d="M68.3335 35V65C68.3335 66.553 68.3335 67.3297 68.0798 67.9423C67.7415 68.759 67.0925 69.408 66.2758 69.7463C65.6632 70 64.8865 70 63.3335 70C61.7805 70 61.0038 70 60.3912 69.7463C59.5745 69.408 58.9255 68.759 58.5872 67.9423C58.3335 67.3297 58.3335 66.553 58.3335 65V35C58.3335 33.447 58.3335 32.6703 58.5872 32.0577C58.9255 31.241 59.5745 30.592 60.3912 30.2537C61.0038 30 61.7805 30 63.3335 30C64.8865 30 65.6632 30 66.2758 30.2537C67.0925 30.592 67.7415 31.241 68.0798 32.0577C68.3335 32.6703 68.3335 33.447 68.3335 35Z" stroke="#9D6E2F" stroke-width="3" stroke-linejoin="round"/>
<path d="M55 10H65V20" stroke="#9D6E2F" stroke-width="3" stroke-linecap="round" stroke-linejoin="round"/>
<path d="M63.3333 11.6667C63.3333 11.6667 50 28.3333 15 40" stroke="#9D6E2F" stroke-width="3" stroke-linecap="round" stroke-linejoin="round"/>
<path d="M45 46.6667V65C45 66.553 45 67.3297 44.7463 67.9423C44.408 68.759 43.759 69.408 42.9423 69.7463C42.3297 70 41.553 70 40 70C38.447 70 37.6703 70 37.0577 69.7463C36.241 69.408 35.592 68.759 35.2537 67.9423C35 67.3297 35 66.553 35 65V46.6667C35 45.1137 35 44.337 35.2537 43.7243C35.592 42.9077 36.241 42.2587 37.0577 41.9203C37.6703 41.6667 38.447 41.6667 40 41.6667C41.553 41.6667 42.3297 41.6667 42.9423 41.9203C43.759 42.2587 44.408 42.9077 44.7463 43.7243C45 44.337 45 45.1137 45 46.6667Z" stroke="#9D6E2F" stroke-width="3" stroke-linejoin="round"/>
<path d="M21.6665 55V65C21.6665 66.553 21.6665 67.3297 21.4128 67.9423C21.0745 68.759 20.4255 69.408 19.6088 69.7463C18.9962 70 18.2196 70 16.6665 70C15.1134 70 14.3368 70 13.7242 69.7463C12.9075 69.408 12.2585 68.759 11.9202 67.9423C11.6665 67.3297 11.6665 66.553 11.6665 65V55C11.6665 53.447 11.6665 52.6703 11.9202 52.0577C12.2585 51.241 12.9075 50.592 13.7242 50.2537C14.3368 50 15.1134 50 16.6665 50C18.2196 50 18.9962 50 19.6088 50.2537C20.4255 50.592 21.0745 51.241 21.4128 52.0577C21.6665 52.6703 21.6665 53.447 21.6665 55Z" stroke="#9D6E2F" stroke-width="3" stroke-linejoin="round"/>
</svg>
