<svg width="28" height="28" viewBox="0 0 28 28" fill="none" xmlns="http://www.w3.org/2000/svg">
<path d="M16.0155 4.01825L18.0686 8.1584C18.3486 8.73472 19.0952 9.28752 19.7252 9.39337L23.4464 10.0167C25.8262 10.4167 26.3862 12.1574 24.6713 13.8746L21.7783 16.7915C21.2883 17.2855 21.0201 18.2382 21.1716 18.9205L22 22.5313C22.6532 25.3894 21.1483 26.495 18.6403 25.0012L15.1523 22.9194C14.5224 22.5431 13.4842 22.5431 12.8426 22.9194L9.35466 25.0012C6.85826 26.495 5.34177 25.3776 5.99503 22.5313L6.82327 18.9205C6.97491 18.2382 6.70662 17.2855 6.21666 16.7915L3.32366 13.8746C1.62051 12.1574 2.16878 10.4167 4.54852 10.0167L8.26977 9.39337C8.88804 9.28752 9.63462 8.73472 9.91459 8.1584L11.9677 4.01825C13.0876 1.77175 14.9073 1.77175 16.0155 4.01825Z" stroke="#9D6E2F" stroke-width="2" stroke-linecap="round" stroke-linejoin="round"/>
</svg>
